<mxfile host="65bd71144e">
    <diagram id="Syf_IsTNwPU9HEtJpHNl" name="Page-1">
        <mxGraphModel dx="1021" dy="356" grid="1" gridSize="10" guides="1" tooltips="1" connect="1" arrows="1" fold="1" page="1" pageScale="1" pageWidth="850" pageHeight="1100" math="0" shadow="0">
            <root>
                <mxCell id="0"/>
                <mxCell id="1" parent="0"/>
                <mxCell id="2" value="&lt;font style=&quot;font-size: 24px&quot;&gt;&lt;b&gt;Map&amp;nbsp;&lt;/b&gt;&lt;/font&gt;" style="rounded=0;whiteSpace=wrap;html=1;shadow=1;glass=0;comic=0;labelBackgroundColor=none;strokeColor=#d6b656;fillColor=#fff2cc;fontColor=#000000;" vertex="1" parent="1">
                    <mxGeometry x="310" y="260" width="200" height="80" as="geometry"/>
                </mxCell>
                <mxCell id="3" value="" style="endArrow=classic;html=1;labelBackgroundColor=#99FF33;strokeColor=#000000;fontColor=#000000;entryX=0.5;entryY=1;exitX=0.5;exitY=0;" edge="1" parent="1" source="4" target="2">
                    <mxGeometry width="50" height="50" relative="1" as="geometry">
                        <mxPoint x="390" y="500" as="sourcePoint"/>
                        <mxPoint x="360" y="360" as="targetPoint"/>
                    </mxGeometry>
                </mxCell>
                <mxCell id="4" value="&lt;font style=&quot;font-size: 24px&quot;&gt;&lt;b&gt;SortedMap&lt;/b&gt;&lt;/font&gt;" style="rounded=0;whiteSpace=wrap;html=1;shadow=1;glass=0;comic=0;labelBackgroundColor=none;strokeColor=#d6b656;fillColor=#fff2cc;fontColor=#000000;" vertex="1" parent="1">
                    <mxGeometry x="310" y="460" width="200" height="80" as="geometry"/>
                </mxCell>
                <mxCell id="5" value="" style="endArrow=classic;html=1;labelBackgroundColor=#99FF33;strokeColor=#000000;fontColor=#000000;entryX=0.5;entryY=1;exitX=0.5;exitY=0;dashed=1;" edge="1" parent="1">
                    <mxGeometry width="50" height="50" relative="1" as="geometry">
                        <mxPoint x="409" y="660" as="sourcePoint"/>
                        <mxPoint x="409" y="540" as="targetPoint"/>
                    </mxGeometry>
                </mxCell>
                <mxCell id="6" value="&lt;font style=&quot;font-size: 24px&quot;&gt;&lt;b&gt;TreeMap&lt;/b&gt;&lt;/font&gt;" style="rounded=0;whiteSpace=wrap;html=1;shadow=1;glass=0;comic=0;labelBackgroundColor=none;strokeColor=#b85450;fillColor=#f8cecc;fontColor=#000000;" vertex="1" parent="1">
                    <mxGeometry x="310" y="660" width="200" height="80" as="geometry"/>
                </mxCell>
                <mxCell id="7" value="" style="endArrow=classic;html=1;labelBackgroundColor=#99FF33;strokeColor=#000000;fontColor=#000000;entryX=0.5;entryY=1;dashed=1;exitX=0.5;exitY=0;" edge="1" parent="1" source="8">
                    <mxGeometry width="50" height="50" relative="1" as="geometry">
                        <mxPoint x="630" y="410" as="sourcePoint"/>
                        <mxPoint x="470" y="340" as="targetPoint"/>
                        <Array as="points">
                            <mxPoint x="730" y="410"/>
                            <mxPoint x="470" y="410"/>
                        </Array>
                    </mxGeometry>
                </mxCell>
                <mxCell id="8" value="&lt;font style=&quot;font-size: 24px&quot;&gt;&lt;b&gt;HashMap&lt;/b&gt;&lt;/font&gt;" style="rounded=0;whiteSpace=wrap;html=1;shadow=1;glass=0;comic=0;labelBackgroundColor=none;strokeColor=#b85450;fillColor=#f8cecc;fontColor=#000000;" vertex="1" parent="1">
                    <mxGeometry x="630" y="460" width="200" height="80" as="geometry"/>
                </mxCell>
                <mxCell id="9" value="" style="endArrow=classic;html=1;labelBackgroundColor=#99FF33;strokeColor=#000000;fontColor=#000000;entryX=0.5;entryY=1;exitX=0.5;exitY=0;" edge="1" parent="1">
                    <mxGeometry width="50" height="50" relative="1" as="geometry">
                        <mxPoint x="729.5" y="660" as="sourcePoint"/>
                        <mxPoint x="729.5" y="540" as="targetPoint"/>
                    </mxGeometry>
                </mxCell>
                <mxCell id="10" value="&lt;font style=&quot;font-size: 24px&quot;&gt;&lt;b&gt;LinkedHashMap&lt;/b&gt;&lt;/font&gt;" style="rounded=0;whiteSpace=wrap;html=1;shadow=1;glass=0;comic=0;labelBackgroundColor=none;strokeColor=#b85450;fillColor=#f8cecc;fontColor=#000000;" vertex="1" parent="1">
                    <mxGeometry x="630" y="660" width="200" height="80" as="geometry"/>
                </mxCell>
                <mxCell id="11" value="" style="rounded=0;whiteSpace=wrap;html=1;shadow=1;glass=0;comic=0;labelBackgroundColor=none;strokeColor=#d6b656;fillColor=#fff2cc;fontColor=#000000;" vertex="1" parent="1">
                    <mxGeometry x="670" y="140" width="90" height="40" as="geometry"/>
                </mxCell>
                <mxCell id="12" value="" style="rounded=0;whiteSpace=wrap;html=1;shadow=1;glass=0;comic=0;labelBackgroundColor=none;strokeColor=#b85450;fillColor=#f8cecc;fontColor=#000000;" vertex="1" parent="1">
                    <mxGeometry x="670" y="200" width="90" height="40" as="geometry"/>
                </mxCell>
                <mxCell id="13" value="&lt;font style=&quot;font-size: 18px&quot;&gt;&lt;b&gt;Interface&amp;nbsp;&lt;/b&gt;&lt;/font&gt;" style="text;html=1;resizable=0;points=[];autosize=1;align=left;verticalAlign=top;spacingTop=-4;fontColor=#000000;" vertex="1" parent="1">
                    <mxGeometry x="790" y="150" width="90" height="20" as="geometry"/>
                </mxCell>
                <mxCell id="14" value="&lt;font style=&quot;font-size: 18px&quot;&gt;&lt;b&gt;Class&amp;nbsp;&lt;/b&gt;&lt;/font&gt;" style="text;html=1;resizable=0;points=[];autosize=1;align=left;verticalAlign=top;spacingTop=-4;fontColor=#000000;" vertex="1" parent="1">
                    <mxGeometry x="790" y="208" width="70" height="20" as="geometry"/>
                </mxCell>
                <mxCell id="15" value="" style="endArrow=classic;html=1;dashed=1;labelBackgroundColor=#99FF33;strokeColor=#000000;fontColor=#000000;" edge="1" parent="1">
                    <mxGeometry width="50" height="50" relative="1" as="geometry">
                        <mxPoint x="715" y="310" as="sourcePoint"/>
                        <mxPoint x="715" y="259.83331298828125" as="targetPoint"/>
                    </mxGeometry>
                </mxCell>
                <mxCell id="16" value="" style="endArrow=classic;html=1;labelBackgroundColor=#99FF33;strokeColor=#000000;fontColor=#000000;" edge="1" parent="1">
                    <mxGeometry width="50" height="50" relative="1" as="geometry">
                        <mxPoint x="714" y="370" as="sourcePoint"/>
                        <mxPoint x="714" y="319.83331298828125" as="targetPoint"/>
                    </mxGeometry>
                </mxCell>
                <mxCell id="17" value="&lt;font style=&quot;font-size: 18px&quot;&gt;&lt;b&gt;implements&amp;nbsp;&lt;/b&gt;&lt;/font&gt;" style="text;html=1;resizable=0;points=[];autosize=1;align=left;verticalAlign=top;spacingTop=-4;fontColor=#000000;" vertex="1" parent="1">
                    <mxGeometry x="790" y="270" width="120" height="20" as="geometry"/>
                </mxCell>
                <mxCell id="18" value="&lt;font style=&quot;font-size: 18px&quot;&gt;&lt;b&gt;extends&lt;/b&gt;&lt;/font&gt;" style="text;html=1;resizable=0;points=[];autosize=1;align=left;verticalAlign=top;spacingTop=-4;fontColor=#000000;" vertex="1" parent="1">
                    <mxGeometry x="790" y="330" width="80" height="20" as="geometry"/>
                </mxCell>
            </root>
        </mxGraphModel>
    </diagram>
</mxfile>